<svg width="115" height="34" viewBox="0 0 115 34" fill="none" xmlns="http://www.w3.org/2000/svg">
<path d="M23.7093 10.576C23.7093 12.272 23.3093 13.872 22.5093 15.376C21.7093 16.88 20.4293 18.112 18.6693 19.072C16.9093 20 14.6533 20.464 11.9013 20.464H5.85325V34H0.38125V0.639997H11.9013C14.4613 0.639997 16.6213 1.088 18.3813 1.984C20.1733 2.848 21.5013 4.032 22.3653 5.536C23.2613 7.04 23.7093 8.72 23.7093 10.576ZM11.9013 16C13.9813 16 15.5333 15.536 16.5573 14.608C17.5813 13.648 18.0933 12.304 18.0933 10.576C18.0933 6.928 16.0293 5.104 11.9013 5.104H5.85325V16H11.9013ZM49.0401 27.184H35.0721L32.6721 34H26.9601L38.9121 0.591998H45.2481L57.2001 34H51.4401L49.0401 27.184ZM47.5041 22.72L42.0801 7.216L36.6081 22.72H47.5041ZM79.7249 34L72.0449 20.656H67.8689V34H62.3969V0.639997H73.9169C76.4769 0.639997 78.6369 1.088 80.3969 1.984C82.1889 2.88 83.5169 4.08 84.3809 5.584C85.2769 7.088 85.7249 8.768 85.7249 10.624C85.7249 12.8 85.0849 14.784 83.8049 16.576C82.5569 18.336 80.6209 19.536 77.9969 20.176L86.2529 34H79.7249ZM67.8689 16.288H73.9169C75.9649 16.288 77.5009 15.776 78.5249 14.752C79.5809 13.728 80.1089 12.352 80.1089 10.624C80.1089 8.896 79.5969 7.552 78.5729 6.592C77.5489 5.6 75.9969 5.104 73.9169 5.104H67.8689V16.288ZM114.277 0.639997V5.104H105.397V34H99.925V5.104H90.997V0.639997H114.277Z" fill="white"/>
</svg>
