<svg width="45" height="35" viewBox="0 0 45 35" fill="none" xmlns="http://www.w3.org/2000/svg">
<path fill-rule="evenodd" clip-rule="evenodd" d="M8.07187 16.976L13.6125 23.9271C13.8197 24.1693 13.986 24.4615 14.1013 24.7861C14.2165 25.1107 14.2785 25.4611 14.2835 25.8165C14.2885 26.1718 14.2364 26.5247 14.1303 26.8542C14.0243 27.1838 13.8663 27.4831 13.666 27.7344C13.4657 27.9857 13.2271 28.1838 12.9645 28.3169C12.7018 28.45 12.4205 28.5153 12.1373 28.5091C11.8541 28.5028 11.5747 28.425 11.316 28.2804C11.0572 28.1357 10.8244 27.9272 10.6313 27.6672L1.49062 16.1998L0 14.3297L1.49062 12.4596L10.6313 0.992228C11.0311 0.52478 11.56 0.270298 12.1065 0.282395C12.6529 0.294491 13.1743 0.572221 13.5608 1.05707C13.9473 1.54193 14.1687 2.19605 14.1783 2.88162C14.1879 3.5672 13.9851 4.23071 13.6125 4.73237L8.07187 11.6834H35.8594C38.2836 11.6834 40.6086 12.8916 42.3228 15.0421C44.037 17.1927 45 20.1095 45 23.1508C45 26.1922 44.037 29.1089 42.3228 31.2595C40.6086 33.41 38.2836 34.6182 35.8594 34.6182H30.2344C29.6749 34.6182 29.1384 34.3394 28.7428 33.8431C28.3472 33.3468 28.125 32.6737 28.125 31.9719C28.125 31.27 28.3472 30.5969 28.7428 30.1007C29.1384 29.6044 29.6749 29.3256 30.2344 29.3256H35.8594C37.1647 29.3256 38.4166 28.675 39.3397 27.517C40.2627 26.359 40.7812 24.7885 40.7812 23.1508C40.7812 21.5132 40.2627 19.9426 39.3397 18.7846C38.4166 17.6266 37.1647 16.976 35.8594 16.976H8.07187Z" fill="white"/>
</svg>
